{"title":"A Walk To Remember [2002] 720p 741mb","uid":7721861,"size":777297703,"categoryP":"video","categoryS":"hd___movies","magnet":"?xt=urn:btih:8bf4193d3cfe2e35a839ebec9acc01d7f93daf1e&amp;dn=A+Walk+To+Remember+%5B2002%5D+720p+741mb&amp;tr=udp%3A%2F%2Ftracker.openbittorrent.com%3A80&amp;tr=udp%3A%2F%2Fopen.demonii.com%3A1337&amp;tr=udp%3A%2F%2Ftracker.coppersurfer.tk%3A6969&amp;tr=udp%3A%2F%2Fexodus.desync.com%3A6969","seeders":1,"leechers":0,"uploader":"chotadon","files":3,"time":1350091311,"description":"A Walk To Remember [2002].mp4\n\n\nFormat                           : MPEG-4\n\nFormat profile                   : Base Media / Version 2\n\nCodec ID                         : mp42\n\nFile size                        : 741 MiB\n\nDuration                         : 1h 41mn\n\nOverall bit rate                 : 1 020 Kbps\n\n\n\nVideo\nID                               : 1\n\nFormat                           : AVC\n\nFormat/Info                      : Advanced Video Codec\n\nFormat profile                   : &lt;a class=&quot;__cf_email__&quot; href=&quot;/cdn-cgi/l/email-protection&quot; data-cfemail=&quot;9ad7fbf3f4dad6a9b4ab&quot;&gt;[email&amp;#160;protected]&lt;/a&gt;&lt;script cf-hash='f9e31' type=&quot;text/javascript&quot;&gt;\n/* &lt;![CDATA[ */!function(){try{var t=&quot;currentScript&quot;in document?document.currentScript:function(){for(var t=document.getElementsByTagName(&quot;script&quot;),e=t.length;e--;)if(t[e].getAttribute(&quot;cf-hash&quot;))return t[e]}();if(t&amp;&amp;t.previousSibling){var e,r,n,i,c=t.previousSibling,a=c.getAttribute(&quot;data-cfemail&quot;);if(a){for(e=&quot;&quot;,r=parseInt(a.substr(0,2),16),n=2;a.length-n;n+=2)i=parseInt(a.substr(n,2),16)^r,e+=String.fromCharCode(i);e=document.createTextNode(e),c.parentNode.replaceChild(e,c)}}}catch(u){}}();/* ]]&gt; */&lt;/script&gt;\n\nFormat settings, CABAC           : Yes\n\nFormat settings, ReFrames        : 4 frames\n\nCodec ID                         : avc1\n\nCodec ID/Info                    : Advanced Video Coding\n\nDuration                         : 1h 41mn\n\nBit rate mode                    : Variable\n\nBit rate                         : 950 Kbps\n\nWidth                            : 1 280 pixels\n\nHeight                           : 720 pixels\n\nDisplay aspect ratio             : 16:9\n\nFrame rate mode                  : Variable\n\nFrame rate                       : 23.976 fps\n\nMinimum frame rate               : 18.868 fps\n\nMaximum frame rate               : 24.570 fps\n\nColor space                      : YUV\n\nChroma subsampling               : 4:2:0\n\nBit depth                        : 8 bits\n\nScan type                        : Progressive\n\nBits/(Pixel*Frame)               : 0.043\n\nStream size                      : 690 MiB (93%)\n\nWriting library                  : x264 core 120\n\n\n\n\nAudio\nID                               : 2\n\nFormat                           : AAC\n\nFormat/Info                      : Advanced Audio Codec\n\nFormat profile                   : LC\n\nCodec ID                         : 40\n\nDuration                         : 1h 41mn\n\nBit rate mode                    : Variable\n\nBit rate                         : 64.2 Kbps\n\nMaximum bit rate                 : 75.2 Kbps\n\nChannel(s)                       : 2 channels\n\nChannel positions                : Front: L R\n\nSampling rate                    : 48.0 KHz\n\nCompression mode                 : Lossy\n\nStream size                      : 46.6 MiB (6%)\n\nLanguage                         : English\n\n\nSubtitles\n\nSRT file included.\n\nPlease seed and comment.......","torrent":{"xt":"urn:btih:8bf4193d3cfe2e35a839ebec9acc01d7f93daf1e","amp;dn":"A+Walk+To+Remember+%5B2002%5D+720p+741mb","amp;tr":["udp%3A%2F%2Ftracker.openbittorrent.com%3A80","udp%3A%2F%2Fopen.demonii.com%3A1337","udp%3A%2F%2Ftracker.coppersurfer.tk%3A6969","udp%3A%2F%2Fexodus.desync.com%3A6969"],"infoHash":"8bf4193d3cfe2e35a839ebec9acc01d7f93daf1e","infoHashBuffer":{"type":"Buffer","data":[139,244,25,61,60,254,46,53,168,57,235,236,154,204,1,215,249,61,175,30]},"announce":[],"urlList":[]}}